<?xml version="1.0" encoding="UTF-8" standalone="no"?>
<!-- Created with Inkscape (http://www.inkscape.org/) -->

<svg
   xmlns:dc="http://purl.org/dc/elements/1.1/"
   xmlns:cc="http://creativecommons.org/ns#"
   xmlns:rdf="http://www.w3.org/1999/02/22-rdf-syntax-ns#"
   xmlns:svg="http://www.w3.org/2000/svg"
   xmlns="http://www.w3.org/2000/svg"
   xmlns:sodipodi="http://sodipodi.sourceforge.net/DTD/sodipodi-0.dtd"
   xmlns:inkscape="http://www.inkscape.org/namespaces/inkscape"
   width="744.09448819"
   height="1052.3622047"
   id="svg2"
   version="1.1"
   inkscape:version="0.47 r22583"
   sodipodi:docname="wifisvg.svg">
  <defs
     id="defs4">
    <inkscape:perspective
       sodipodi:type="inkscape:persp3d"
       inkscape:vp_x="0 : 526.18109 : 1"
       inkscape:vp_y="0 : 1000 : 0"
       inkscape:vp_z="744.09448 : 526.18109 : 1"
       inkscape:persp3d-origin="372.04724 : 350.78739 : 1"
       id="perspective10" />
    <inkscape:perspective
       id="perspective2830"
       inkscape:persp3d-origin="0.5 : 0.33333333 : 1"
       inkscape:vp_z="1 : 0.5 : 1"
       inkscape:vp_y="0 : 1000 : 0"
       inkscape:vp_x="0 : 0.5 : 1"
       sodipodi:type="inkscape:persp3d" />
    <inkscape:perspective
       id="perspective3624"
       inkscape:persp3d-origin="0.5 : 0.33333333 : 1"
       inkscape:vp_z="1 : 0.5 : 1"
       inkscape:vp_y="0 : 1000 : 0"
       inkscape:vp_x="0 : 0.5 : 1"
       sodipodi:type="inkscape:persp3d" />
    <inkscape:perspective
       id="perspective3646"
       inkscape:persp3d-origin="0.5 : 0.33333333 : 1"
       inkscape:vp_z="1 : 0.5 : 1"
       inkscape:vp_y="0 : 1000 : 0"
       inkscape:vp_x="0 : 0.5 : 1"
       sodipodi:type="inkscape:persp3d" />
    <inkscape:perspective
       id="perspective3668"
       inkscape:persp3d-origin="0.5 : 0.33333333 : 1"
       inkscape:vp_z="1 : 0.5 : 1"
       inkscape:vp_y="0 : 1000 : 0"
       inkscape:vp_x="0 : 0.5 : 1"
       sodipodi:type="inkscape:persp3d" />
    <inkscape:perspective
       id="perspective3690"
       inkscape:persp3d-origin="0.5 : 0.33333333 : 1"
       inkscape:vp_z="1 : 0.5 : 1"
       inkscape:vp_y="0 : 1000 : 0"
       inkscape:vp_x="0 : 0.5 : 1"
       sodipodi:type="inkscape:persp3d" />
    <inkscape:perspective
       id="perspective3712"
       inkscape:persp3d-origin="0.5 : 0.33333333 : 1"
       inkscape:vp_z="1 : 0.5 : 1"
       inkscape:vp_y="0 : 1000 : 0"
       inkscape:vp_x="0 : 0.5 : 1"
       sodipodi:type="inkscape:persp3d" />
    <inkscape:perspective
       id="perspective3793"
       inkscape:persp3d-origin="0.5 : 0.33333333 : 1"
       inkscape:vp_z="1 : 0.5 : 1"
       inkscape:vp_y="0 : 1000 : 0"
       inkscape:vp_x="0 : 0.5 : 1"
       sodipodi:type="inkscape:persp3d" />
    <inkscape:perspective
       id="perspective3815"
       inkscape:persp3d-origin="0.5 : 0.33333333 : 1"
       inkscape:vp_z="1 : 0.5 : 1"
       inkscape:vp_y="0 : 1000 : 0"
       inkscape:vp_x="0 : 0.5 : 1"
       sodipodi:type="inkscape:persp3d" />
    <inkscape:perspective
       id="perspective3921"
       inkscape:persp3d-origin="0.5 : 0.33333333 : 1"
       inkscape:vp_z="1 : 0.5 : 1"
       inkscape:vp_y="0 : 1000 : 0"
       inkscape:vp_x="0 : 0.5 : 1"
       sodipodi:type="inkscape:persp3d" />
    <inkscape:perspective
       id="perspective3921-5"
       inkscape:persp3d-origin="0.5 : 0.33333333 : 1"
       inkscape:vp_z="1 : 0.5 : 1"
       inkscape:vp_y="0 : 1000 : 0"
       inkscape:vp_x="0 : 0.5 : 1"
       sodipodi:type="inkscape:persp3d" />
    <inkscape:perspective
       id="perspective3921-2"
       inkscape:persp3d-origin="0.5 : 0.33333333 : 1"
       inkscape:vp_z="1 : 0.5 : 1"
       inkscape:vp_y="0 : 1000 : 0"
       inkscape:vp_x="0 : 0.5 : 1"
       sodipodi:type="inkscape:persp3d" />
    <inkscape:perspective
       id="perspective3921-3"
       inkscape:persp3d-origin="0.5 : 0.33333333 : 1"
       inkscape:vp_z="1 : 0.5 : 1"
       inkscape:vp_y="0 : 1000 : 0"
       inkscape:vp_x="0 : 0.5 : 1"
       sodipodi:type="inkscape:persp3d" />
    <inkscape:perspective
       id="perspective3976"
       inkscape:persp3d-origin="0.5 : 0.33333333 : 1"
       inkscape:vp_z="1 : 0.5 : 1"
       inkscape:vp_y="0 : 1000 : 0"
       inkscape:vp_x="0 : 0.5 : 1"
       sodipodi:type="inkscape:persp3d" />
  </defs>
  <sodipodi:namedview
     id="base"
     pagecolor="#ffffff"
     bordercolor="#666666"
     borderopacity="1.0"
     inkscape:pageopacity="0.0"
     inkscape:pageshadow="2"
     inkscape:zoom="2.8"
     inkscape:cx="283.50009"
     inkscape:cy="654.13995"
     inkscape:document-units="px"
     inkscape:current-layer="layer1"
     showgrid="true"
     inkscape:window-width="1440"
     inkscape:window-height="787"
     inkscape:window-x="0"
     inkscape:window-y="0"
     inkscape:window-maximized="0"
     objecttolerance="20"
     gridtolerance="22">
    <inkscape:grid
       type="xygrid"
       id="grid2816"
       empspacing="5"
       visible="true"
       enabled="true"
       snapvisiblegridlinesonly="false" />
  </sodipodi:namedview>
  <metadata
     id="metadata7">
    <rdf:RDF>
      <cc:Work
         rdf:about="">
        <dc:format>image/svg+xml</dc:format>
        <dc:type
           rdf:resource="http://purl.org/dc/dcmitype/StillImage" />
        <dc:title></dc:title>
      </cc:Work>
    </rdf:RDF>
  </metadata>
  <g
     inkscape:label="Layer 1"
     inkscape:groupmode="layer"
     id="layer1">
    <rect
       style="fill:#333333;fill-opacity:1;stroke:#000000;stroke-width:0.5;stroke-linecap:butt;stroke-miterlimit:4;stroke-opacity:1;stroke-dasharray:none"
       id="rect3966"
       width="240"
       height="190"
       x="153"
       y="459.36218" />
    <path
       style="fill:#f4e145;fill-opacity:1;stroke:#ffffff;stroke-width:1;stroke-miterlimit:4;stroke-opacity:1;stroke-dasharray:none"
       d="m 304.80291,402.45441 c -8.03964,-7.80651 -18.73936,-12.96905 -30.78124,-13.94326 l -0.0221,-0.0221 c -15.17698,-1.22161 -29.30748,4.46355 -39.31072,14.42939 l 7.07107,7.07107 c 7.99737,-7.95927 19.29442,-12.51083 31.42206,-11.53468 l 0.0442,0 c 9.6335,0.77937 18.16236,4.91382 24.59406,11.15903 0.15726,0.15271 0.30931,0.30884 0.46404,0.46404 l 7.04897,-7.09317 c -0.17759,-0.17766 -0.35006,-0.35529 -0.53033,-0.53033 z"
       id="path2820-7-9-3-8"
       inkscape:export-filename="/Users/bjnortier/development/emergence/img/wifi_1.png"
       inkscape:export-xdpi="119.92143"
       inkscape:export-ydpi="119.92143" />
    <path
       style="fill:#f4e145;fill-opacity:1;stroke:#ffffff;stroke-width:1;stroke-miterlimit:4;stroke-opacity:1;stroke-dasharray:none"
       d="m 318.72407,388.09131 c -11.25548,-10.92912 -26.23068,-18.16994 -43.08932,-19.53383 l -0.0442,0 c -21.224,-1.70832 -41.00268,6.24664 -54.99965,20.17464 l 7.04897,7.09317 c 12.00654,-11.94525 28.97322,-18.76727 47.17728,-17.30202 14.45026,1.16904 27.29878,7.38177 36.94633,16.74959 0.21616,0.20989 0.42788,0.42776 0.64082,0.64082 l 7.07106,-7.07107 c -0.25236,-0.25264 -0.49504,-0.50246 -0.7513,-0.7513 z"
       id="path2820-7-9"
       inkscape:export-filename="/Users/bjnortier/development/emergence/img/wifi_3.png"
       inkscape:export-xdpi="119.92143"
       inkscape:export-ydpi="119.92143" />
    <path
       style="fill:#f4e145;fill-opacity:1;stroke:#ffffff;stroke-width:1;stroke-miterlimit:4;stroke-opacity:1;stroke-dasharray:none"
       d="m 334.01526,375.09822 c -1.10397,-1.10357 -2.21367,-2.19113 -3.35876,-3.22617 -29.19982,-26.39356 -71.35038,-30.50079 -104.34245,-12.24179 -0.61299,0.34107 -1.22969,0.68359 -1.83405,1.03856 -0.0456,0.0267 -0.087,0.0616 -0.13259,0.0884 -0.50247,0.29631 -1.00627,0.57807 -1.5026,0.88388 -0.1641,0.10072 -0.32254,0.20749 -0.48613,0.30936 -0.0818,0.0511 -0.16142,0.10328 -0.24307,0.15468 -0.5132,0.32191 -1.01673,0.66107 -1.5247,0.99437 -0.62431,0.40964 -1.24004,0.8106 -1.85616,1.23744 -0.0788,0.0546 -0.16447,0.0998 -0.24306,0.15468 -0.53639,0.37418 -1.0611,0.76178 -1.59099,1.14905 -0.0513,0.0375 -0.10345,0.0729 -0.15468,0.11048 -1.15465,0.84762 -2.30314,1.71964 -3.42505,2.62956 -0.008,0.007 -0.014,0.0155 -0.0221,0.0221 -0.55084,0.44687 -1.09503,0.91037 -1.63518,1.37002 -0.0395,0.0336 -0.071,0.0768 -0.11049,0.11049 -0.57999,0.49567 -1.15345,0.98971 -1.72357,1.5026 -0.57013,0.51289 -1.14155,1.03879 -1.70148,1.56889 -0.41686,0.39429 -0.82806,0.79101 -1.23743,1.19325 -0.14174,0.13936 -0.27881,0.27934 -0.41985,0.41984 l 7.07107,7.11526 c 16.00284,-15.93451 38.59291,-25.04521 62.86621,-23.09145 l 0.0442,0 c 19.26702,1.55872 36.36891,9.82764 49.23231,22.31805 0.42695,0.41457 0.84203,0.83577 1.25954,1.25954 l 7.07107,-7.07107 z"
       id="path2820-7-0"
       inkscape:export-filename="/Users/bjnortier/development/emergence/img/wifi_4.png"
       inkscape:export-xdpi="119.92143"
       inkscape:export-ydpi="119.92143" />
    <path
       style="fill:#f4e145;fill-opacity:1;stroke:#ffffff;stroke-width:1;stroke-linecap:butt;stroke-miterlimit:4;stroke-opacity:1;stroke-dasharray:none"
       d="m 290.85965,416.79542 c -4.82378,-4.68391 -11.22594,-7.79027 -18.45107,-8.37479 -9.1077,-0.73308 -17.59789,2.68076 -23.59969,8.66206 L 270,438.36218 l 21.2132,-21.2132 c -0.11786,-0.11832 -0.23371,-0.23719 -0.35355,-0.35356 z"
       id="path3753"
       inkscape:export-filename="/Users/bjnortier/development/emergence/img/wifi_0.png"
       inkscape:export-xdpi="119.92143"
       inkscape:export-ydpi="119.92143" />
    <path
       transform="matrix(0.70710678,0.70710678,-0.70710678,0.70710678,363.5942,-107.78035)"
       sodipodi:type="arc"
       style="fill:none;stroke:#ffffff;stroke-opacity:1"
       id="path2820-8-0"
       sodipodi:cx="320"
       sodipodi:cy="452.36218"
       sodipodi:rx="90.576157"
       sodipodi:ry="89.998337"
       d="m 229.424,452.19258 a 90.576157,89.998337 0 0 1 90.5596,-89.82873 L 320,452.36218 z"
       sodipodi:start="3.1434772"
       sodipodi:end="4.7122079"
       inkscape:export-filename="/Users/bjnortier/development/emergence/img/wifi_none.png"
       inkscape:export-xdpi="119.92143"
       inkscape:export-ydpi="119.92143" />
    <rect
       style="opacity:0.12087911000000000;fill:none;stroke:none;stroke-width:1;stroke-linecap:butt;stroke-miterlimit:4;stroke-opacity:1;stroke-dasharray:none"
       id="rect4055"
       width="140"
       height="100"
       x="200"
       y="342.36218"
       inkscape:export-filename="/Users/bjnortier/development/emergence/img/wifi_none.png"
       inkscape:export-xdpi="119.92143"
       inkscape:export-ydpi="119.92143" />
  </g>
</svg>
